<?xml version="1.0" encoding="UTF-8" standalone="no"?>
<svg
   width="625"
   height="625"
   version="1.1"
   id="svg4"
   sodipodi:docname="Recycling_symbol2.svg"
   inkscape:version="1.2.2 (732a01da63, 2022-12-09)"
   inkscape:export-filename="Recycling_symbol2.png"
   inkscape:export-xdpi="96"
   inkscape:export-ydpi="96"
   xmlns:inkscape="http://www.inkscape.org/namespaces/inkscape"
   xmlns:sodipodi="http://sodipodi.sourceforge.net/DTD/sodipodi-0.dtd"
   xmlns="http://www.w3.org/2000/svg"
   xmlns:svg="http://www.w3.org/2000/svg">
  <defs
     id="defs8" />
  <sodipodi:namedview
     id="namedview6"
     pagecolor="#ffffff"
     bordercolor="#666666"
     borderopacity="1.0"
     inkscape:showpageshadow="2"
     inkscape:pageopacity="0.0"
     inkscape:pagecheckerboard="0"
     inkscape:deskcolor="#d1d1d1"
     showgrid="false"
     inkscape:zoom="1.6032"
     inkscape:cx="208.02146"
     inkscape:cy="312.5"
     inkscape:window-width="2560"
     inkscape:window-height="1369"
     inkscape:window-x="1912"
     inkscape:window-y="-8"
     inkscape:window-maximized="1"
     inkscape:current-layer="svg4" />
  <path
     d="m10 207l38 30-36 69c-18 32 13 63 33 74 19 11 50 12 78 12l51-83 38 21-66-123-135 1m6 169l82 152c17 21 48 26 80 25h87v-144l-165-1c-26 2-59-4-85-32m517-280l-45 19-43-65c-19-31-61-19-80-7-19 12-34 38-48 62l48 85-37 23 140 2 65-119zm-151-77l-173-2c-26 4-46 29-61 58l-42 76 126 70 81-143c11-23 32-50 69-58m8 586l5-48 78-6c37-2 46-44 45-67-1-22-16-48-31-72l-97.16.925-3-43-69 122 73 114m140-94l85-150c9-25-3-54-21-81l-46-74-122 76 86 140c15 21 28 52 17 89z"
     fill="#006E27"
     id="path2"
     style="fill:#5fbcd3" />
  <path
     style="fill:#37c837;stroke:#000000;stroke-width:1.565"
     d="M 95.122255,391.05887 C 67.264816,389.38529 50.857426,384.63595 36.719726,374.15349 22.594983,363.68063 12.895922,350.99558 8.6325699,337.41933 c -2.0349693,-6.48017 -2.0264707,-17.14705 0.018303,-22.97254 0.7681283,-2.18837 9.9424281,-20.3444 20.3873331,-40.34674 10.444905,-20.00233 18.990736,-36.62494 18.990736,-36.93913 0,-0.31419 -7.961135,-6.85875 -17.691411,-14.54348 L 12.64612,208.64521 36.730994,208.22887 c 13.246681,-0.22899 43.213411,-0.51065 66.592736,-0.62592 l 42.50786,-0.20958 32.46056,60.49199 c 17.85332,33.2706 32.38502,60.56755 32.29268,60.65989 -0.0924,0.0923 -8.38787,-4.37 -18.43451,-9.91631 -14.44611,-7.97507 -18.37586,-9.89888 -18.78899,-9.19813 -0.28731,0.48733 -11.7444,19.13082 -25.4602,41.42997 l -24.93782,40.54391 -9.86614,0.0707 c -5.42637,0.0389 -13.515084,-0.14856 -17.974915,-0.41649 z"
     id="path306" />
  <path
     style="fill:#8dd35f;stroke:#000000;stroke-width:2.265;stroke-dasharray:none"
     d="m 155.93812,553.20387 c -23.74641,-2.071 -41.838,-9.08211 -52.90908,-20.50409 -3.713864,-3.83157 -6.22516,-8.3006 -42.945652,-76.42483 -21.450619,-39.79541 -39.167798,-72.76999 -39.371511,-73.27684 -0.203712,-0.50685 1.537409,0.69695 3.869159,2.67512 13.894216,11.78731 29.541287,19.00066 48.398006,22.31164 6.807065,1.19523 10.436121,1.27332 71.107788,1.53021 35.16404,0.14889 76.91648,0.44867 92.78318,0.66619 l 28.84855,0.39549 v 71.65773 71.65773 l -51.92739,-0.0858 c -28.56007,-0.0472 -54.59394,-0.31833 -57.85305,-0.60257 z"
     id="path377" />
  <path
     style="fill:#8dd35f;stroke:#000000;stroke-width:1.565"
     d="M 96.057884,390.03997 C 87.941529,389.6352 74.370827,387.8789 67.365269,386.32662 54.444815,383.46372 45.372691,379.29464 35.680129,371.76577 23.163104,362.04295 14.410049,350.56878 10.216201,338.38573 8.7019936,333.98698 8.4975775,332.47184 8.4910462,325.5988 8.481797,315.86542 7.549664,318.11172 28.033053,278.50549 36.549422,262.03842 44.827687,245.94567 46.429196,242.74383 l 2.911834,-5.82155 -2.259003,-2.13051 c -1.242452,-1.17178 -8.719002,-7.25344 -16.614557,-13.51479 l -14.355553,-11.38427 15.490698,-0.39239 c 8.519884,-0.21581 37.531159,-0.5736 64.469503,-0.79509 l 48.978802,-0.40271 18.99937,35.41336 c 30.62897,57.09003 43.61241,81.51397 43.42914,81.69723 -0.0944,0.0944 -6.88521,-3.47466 -15.09071,-7.93122 -15.35019,-8.337 -18.71945,-9.87336 -19.62233,-8.94767 -0.28707,0.29433 -11.73494,18.7799 -25.43971,41.07905 l -24.91777,40.54392 -11.14831,0.0425 c -6.13158,0.0234 -12.972801,-0.0485 -15.202716,-0.15969 z"
     id="path448" />
  <path
     style="fill:#ffd42a;stroke:#000000;stroke-width:1.565"
     d="m 169.36983,186.78968 c -34.27396,-19.03992 -62.42629,-34.72805 -62.56075,-34.8625 -0.1957,-0.19571 32.41373,-59.724429 46.1516,-84.250034 14.60852,-26.079932 33.19328,-43.642491 51.00639,-48.200916 4.60043,-1.177264 6.10802,-1.179542 90.75598,-0.137119 47.34282,0.583017 86.21819,1.121603 86.38972,1.196857 0.17154,0.07525 -1.93363,0.782504 -4.67814,1.571666 -7.06948,2.032772 -12.98915,4.379404 -18.4007,7.294268 -18.3066,9.860621 -31.91916,24.273755 -43.80765,46.384026 -4.58505,8.527314 -81.49264,144.469312 -82.12606,145.166182 -0.22776,0.25057 -28.45644,-15.12252 -62.73039,-34.16243 z"
     id="path704" />
  <path
     style="fill:#ffd42a;stroke:#000000;stroke-width:1.565"
     d="m 403.25599,214.82851 c -28.81737,-0.45247 -57.2653,-0.90607 -63.21764,-1.00798 l -10.82243,-0.1853 18.0965,-11.2202 c 9.95308,-6.1711 18.02236,-11.36384 17.93173,-11.53942 -0.0906,-0.17557 -10.89308,-19.3446 -24.00547,-42.59783 l -23.8407,-42.27862 3.88998,-6.685955 c 13.7721,-23.671048 23.1164,-36.534319 34.11347,-46.960291 9.58998,-9.091947 19.95125,-14.582892 34.83975,-18.463293 6.07502,-1.583336 7.81141,-1.766368 16.75732,-1.766368 11.10872,0 15.59609,0.950945 23.07885,4.890768 7.61731,4.010673 10.64765,7.899281 34.93841,44.833912 12.34575,18.771977 22.76013,34.139677 23.14307,34.150447 0.38294,0.0108 10.32125,-4.05315 22.08513,-9.03093 11.76389,-4.97778 21.46089,-8.977592 21.54889,-8.88847 0.088,0.08912 -14.25524,26.54677 -31.8739,58.79477 l -32.03391,58.63274 -6.11692,0.0724 c -3.36431,0.0398 -29.69477,-0.29786 -58.51213,-0.75033 z"
     id="path706" />
  <path
     style="fill:#ffd42a;stroke:#000000;stroke-width:1.565"
     d="m 531.01274,511.16517 c 0.20821,-1.02919 0.87227,-3.97642 1.47568,-6.5494 1.61614,-6.89127 1.59816,-29.34808 -0.0294,-36.8014 -2.99258,-13.70382 -8.54831,-26.56773 -17.37561,-40.23203 -7.08718,-10.97063 -87.31724,-141.69692 -87.33688,-142.30605 -0.0127,-0.39299 120.24893,-75.69545 120.88923,-75.69545 0.10511,0 5.73304,8.91186 12.5065,19.80414 6.77345,10.89228 19.03784,30.59032 27.25419,43.77342 16.20725,26.00447 22.17776,37.2863 25.93669,49.00976 3.20078,9.98268 4.08974,15.37238 4.01235,24.32635 -0.11469,13.27 2.5779,7.77771 -44.80875,91.4002 -23.22505,40.98488 -42.37927,74.65831 -42.56494,74.82984 -0.18567,0.17153 -0.16723,-0.53019 0.041,-1.55938 z"
     id="path708" />
  <path
     style="fill:#59b2c8;stroke:#000000;stroke-width:1.565;fill-opacity:1"
     d="m 354.08992,549.89765 c -19.4256,-30.3394 -35.39689,-55.41176 -35.49177,-55.71636 -0.0949,-0.30459 15.12503,-27.61785 33.82201,-60.69614 24.78915,-43.8564 34.05244,-59.73573 34.20845,-58.64079 0.11767,0.82584 0.81939,10.22284 1.55938,20.88223 l 1.34544,19.3807 32.12326,-0.16675 c 17.66779,-0.0917 39.5615,-0.32905 48.65269,-0.52742 l 16.52944,-0.36067 6.23753,10.5015 c 12.07131,20.32325 19.17513,35.63613 22.49073,48.48066 6.11511,23.68973 -1.77965,55.22134 -17.35679,69.32292 -4.97969,4.50798 -12.34323,8.17585 -18.8565,9.39267 -2.74451,0.51273 -22.74247,2.27931 -44.43992,3.92573 -21.69744,1.64642 -39.6322,3.1758 -39.85503,3.39862 -0.22281,0.22282 -1.46754,10.54315 -2.76604,22.93405 -1.2985,12.39089 -2.47852,22.64651 -2.62226,22.79025 -0.14374,0.14375 -16.15502,-24.5618 -35.58062,-54.9012 z"
     id="path710" />
  <path
     style="fill:#59b2c8;fill-opacity:1;stroke:#000000;stroke-width:1.565"
     d="m 231.00934,219.71767 c -0.12151,-0.29971 -8.64158,-5.13328 -18.93349,-10.74128 -10.29192,-5.608 -37.23803,-20.49214 -59.88024,-33.07587 -22.64222,-12.58373 -41.9673,-23.29813 -42.94464,-23.80976 -1.63337,-0.85508 -1.69583,-1.01139 -0.77288,-1.93433 0.55224,-0.55224 7.41728,-12.73982 15.25564,-27.0835 21.93452,-40.138748 32.14232,-58.372085 36.00381,-64.310615 11.32102,-17.410438 25.80779,-30.84161 39.31418,-36.449495 l 4.91535,-2.040864 h 42.41517 c 23.32834,0 61.76974,0.24495 85.42534,0.544334 l 43.01017,0.544334 -5.58502,2.006488 c -18.81276,6.758715 -34.17101,18.857506 -46.7458,36.825004 -2.16088,3.087575 -12.69625,21.191991 -23.41194,40.232034 -19.36204,34.40321 -67.37158,119.27082 -67.68226,119.64353 -0.0894,0.1072 -0.26189,-0.0503 -0.38339,-0.35001 z"
     id="path1596" />
  <path
     style="fill:#59b2c8;fill-opacity:1;stroke:#000000;stroke-width:1.565"
     d="m 404.50349,213.843 c -18.69698,-0.28933 -42.33101,-0.73513 -52.52006,-0.99067 l -18.52555,-0.46461 14.96985,-9.35628 c 8.23341,-5.14596 15.64421,-10.05932 16.46844,-10.91858 l 1.4986,-1.56229 -23.43023,-41.47664 c -12.88662,-22.81214 -23.56699,-41.94843 -23.73416,-42.52508 -0.32509,-1.12145 8.90099,-17.017449 16.04363,-27.642249 13.70773,-20.390483 26.00017,-32.20793 40.27586,-38.719558 2.71654,-1.239101 8.30742,-3.259123 12.42418,-4.488937 7.32162,-2.187209 7.72334,-2.236645 18.4007,-2.264421 12.22663,-0.0318 15.17267,0.542104 22.51501,4.386091 7.84304,4.106128 9.85766,6.695246 37.91393,48.725883 11.04934,16.552831 20.42828,30.129321 20.84211,30.169961 1.56672,0.15389 2.94282,-0.36424 21.84901,-8.22654 10.66639,-4.43571 19.6229,-8.06493 19.90334,-8.06493 0.55052,0 -5.73126,12.03921 -7.14063,13.68524 -0.46988,0.54877 -13.05215,23.37219 -27.96061,50.7187 l -27.10629,49.72094 -14.34631,-0.09 c -7.89047,-0.0495 -29.64384,-0.32671 -48.34082,-0.61605 z"
     id="path1598" />
  <path
     style="fill:#cf1679;fill-opacity:1;stroke:#000000;stroke-width:1.565"
     d="m 534.07426,502.12076 c 0.2649,-1.88685 0.46762,-9.3251 0.4505,-16.52944 -0.0341,-14.36233 -0.65106,-18.7628 -4.09566,-29.21402 -3.24326,-9.84032 -9.26865,-21.22939 -22.49395,-42.51752 -13.19528,-21.23983 -46.3691,-75.1956 -67.11319,-109.15669 l -11.811,-19.33632 2.05948,-1.40345 c 1.13272,-0.77189 2.2398,-1.40344 2.46018,-1.40344 0.22039,0 13.77851,-8.401 30.12915,-18.66888 72.47561,-45.51324 84.6182,-52.96478 85.11702,-52.23368 1.4673,2.15058 43.17363,69.41714 47.63469,76.82821 11.02033,18.30784 17.81929,33.95468 19.87399,45.73718 0.50469,2.89413 0.91762,8.46206 0.91762,12.37319 0,11.64002 -0.22447,12.12958 -28.55404,62.27386 -23.39472,41.40941 -52.7179,93.02884 -53.85844,94.81038 l -1.19797,1.87126 z"
     id="path2326" />
  <path
     style="fill:#cf1679;fill-opacity:1;stroke:#000000;stroke-width:1.565"
     d="m 387.85561,601.61284 c -0.40821,-0.44345 -0.58788,-0.96058 -0.39927,-1.14919 0.18861,-0.18861 -7.936,-13.20037 -18.05469,-28.91502 -10.11869,-15.71464 -25.42594,-39.60109 -34.01611,-53.081 l -15.61849,-24.50892 2.38284,-4.1837 c 1.31056,-2.30103 8.90838,-15.83227 16.88403,-30.06942 29.43602,-52.54553 46.04137,-81.38761 46.55935,-80.86964 0.29659,0.29659 2.65551,31.09363 2.67831,34.96671 l 0.0144,2.43789 49.06633,-0.25476 49.06633,-0.25475 2.49117,4.05439 c 5.82423,9.47896 14.87813,26.13213 18.05996,33.21836 7.11494,15.84564 9.33332,24.69743 9.33932,37.26567 0.008,17.83953 -5.17593,34.36379 -14.63833,46.65646 -2.81716,3.65979 -8.25853,8.02909 -12.98727,10.4285 -6.59349,3.34559 -9.33666,3.70537 -57.04671,7.48186 -28.18092,2.23067 -36.97243,3.07344 -37.49314,3.59415 -0.15426,0.15426 -1.38225,10.03682 -2.72887,21.96124 -1.34661,11.92442 -2.53131,21.75875 -2.63265,21.85409 -0.10135,0.0953 -0.51825,-0.18949 -0.92646,-0.63292 z"
     id="path2535" />
</svg>
